<?xml version="1.0" encoding="utf-8"?>
<!-- Generator: Adobe Illustrator 16.0.0, SVG Export Plug-In . SVG Version: 6.00 Build 0)  -->
<!DOCTYPE svg PUBLIC "-//W3C//DTD SVG 1.1//EN" "http://www.w3.org/Graphics/SVG/1.1/DTD/svg11.dtd">
<svg version="1.1" id="Layer_1" xmlns="http://www.w3.org/2000/svg" xmlns:xlink="http://www.w3.org/1999/xlink" x="0px" y="0px"
	 width="1772px" height="1774px" viewBox="0 0 1772 1774" enable-background="new 0 0 1772 1774" xml:space="preserve">
<g>
	<path fill-rule="evenodd" clip-rule="evenodd" d="M678.755,1472.738c36.918,0,72.827,0,109.176,0c0-116.043,0-231.682,0-346.947
		c-80.926,80.695-161.938,161.475-243.237,242.543c25.585,25.541,51.193,51.107,77.807,77.676
		c-120.963,21.756-240.306,43.221-360.491,64.836c21.576-120.143,43.032-239.611,64.522-359.279
		c25.898,25.871,51.416,51.361,76.313,76.23c82.551-82.223,164.494-163.842,246.698-245.721c-114.607,0-229.001,0-344.115,0
		c0,36.168,0,72.344,0,109.727c-100.565-69.93-200.075-139.127-300.372-208.872c100.035-69.573,199.608-138.825,300.002-208.646
		c0,36.791,0,72.78,0,109.16c116.172,0,231.695,0,346.307,0c-80.577-80.576-161.567-161.566-242.789-242.787
		c-24.704,24.753-50.212,50.313-76.644,76.798c-21.656-120.549-43.115-240.001-64.732-360.337
		c120.058,21.593,239.456,43.066,359.054,64.576c-25.792,25.831-51.363,51.442-76.707,76.826
		c82.506,82.383,164.304,164.06,245.943,245.577c0-113.742,0-228.229,0-343.381c-36.046,0-72.224,0-109.634,0
		C755.785,200.021,825.002,100.351,894.691,0c69.547,100.142,138.769,199.815,208.51,300.238c-36.673,0-72.653,0-109.064,0
		c0,116.17,0,231.72,0,345.877c80.304-80.076,161.364-160.907,243.219-242.529c-25.067-24.875-50.756-50.366-77.122-76.53
		c120.398-21.658,239.745-43.128,359.826-64.729c-21.574,120.141-43.011,239.514-64.438,358.836
		c-25.691-25.697-51.253-51.266-76.416-76.436c-82.871,82.544-164.76,164.11-247.211,246.235c115.136,0,229.599,0,344.589,0
		c0-36.073,0-72.152,0-109.649c100.604,69.959,200.189,139.209,300.435,208.921c-100.041,69.576-199.639,138.846-300.068,208.693
		c0-36.889,0-72.898,0-109.289c-116.146,0-231.679,0-346.484,0c80.702,80.65,161.716,161.613,242.668,242.514
		c24.729-24.652,50.287-50.133,76.965-76.73c21.706,120.824,43.161,240.25,64.787,360.627
		c-119.996-21.588-239.378-43.066-358.413-64.482c25.515-25.523,51.07-51.088,76.345-76.371
		c-82.902-82.771-164.763-164.5-246.387-245.994c0,113.791,0,228.322,0,343.322c36.342,0,72.42,0,109.738,0
		c-69.895,100.65-139.167,200.408-208.784,300.658C817.777,1672.941,748.525,1573.213,678.755,1472.738z M891.058,1087.893
		c111.286-0.012,201.223-90.01,201.194-201.331c-0.027-111.315-90.03-201.359-201.236-201.331
		c-111.268,0.029-201.195,90.047-201.174,201.374C689.863,997.986,779.751,1087.906,891.058,1087.893z"/>
</g>
<g id="g1343">
	<path id="path1345" d="M969.535,747.62c0,0,137.646,107.648,36.471,262.353C1101.299,951.738,1109.535,791.59,969.535,747.62z"/>
	<path id="path1347" d="M892.037,732.327c-21.912,24.706-59.559,0.147-46.617-26.765c22.646,40.587,46.617,7.794,46.617,7.794
		s23.97,32.793,46.617-7.794C951.596,732.474,913.949,757.032,892.037,732.327z"/>
	<path id="path1349" d="M892.037,1067.619l-15.734-20.588c0,0-37.059,12.354-85.883-4.705c40,0,62.354-7.061,70.588-11.178
		c0,0-90.588-48.822-88.822-148.234c5.293-100.587,58.822-131.175,58.822-131.175s-95.293,138.821,44.705,254.849l-6.176-143.528
		c0,0,0-94.558,0-105.44c7.941-1.912,22.5-18.676,22.5-18.676s14.559,16.764,22.5,18.676c0,10.882,0,105.44,0,105.44l-6.177,143.528
		c139.998-116.027,44.704-254.849,44.704-254.849s53.529,30.588,58.824,131.175c1.765,99.412-88.823,148.234-88.823,148.234
		c8.235,4.117,30.589,11.178,70.587,11.178c-48.822,17.059-85.881,4.705-85.881,4.705L892.037,1067.619z"/>
	<path id="path1351" d="M814.537,747.62c0,0-137.645,107.648-36.469,262.353C682.774,951.738,674.539,791.59,814.537,747.62z"/>
</g>
</svg>
