<?xml version="1.0" encoding="utf-8"?>
<!-- Generator: Adobe Illustrator 19.0.0, SVG Export Plug-In . SVG Version: 6.00 Build 0)  -->
<svg version="1.1" id="layer" xmlns="http://www.w3.org/2000/svg" xmlns:xlink="http://www.w3.org/1999/xlink" x="0px" y="0px"
	 viewBox="-153 -46 652 652" style="enable-background:new -153 -46 652 652;" xml:space="preserve">
<style type="text/css">
	.st0{fill:#E31837;}
</style>
<path id="XMLID_4_" d="M-103.3,352.2h-2.7v13.6c0,2.9-1.3,5.9-5,5.9c-2.8,0-4.2-1.7-4.8-3.8l-0.3-2.1v-13.6h-2.8v12.9
	c0,3.5,1.1,5.7,2.6,7c1.5,1.3,3.5,1.8,5.2,1.8c3.1,0,6.7-1.4,7.6-6.4l0.2-2.4 M245.8,331.8h13.1v-2.2h-10.3v-7.7h9.5v-2.2h-9.5v-6.9
	h10v-2.2h-12.8V331.8z M249.4,309.1h2.1l4.2-4.3h-3.2L249.4,309.1z M209.5,331.8h2.7v-18.9h6.2v-2.4h-15.1v2.4h6.2V331.8z
	 M175.9,310.5h-2.7v21.3h2.7V310.5z M137.2,332.2c6.1,0,7.3-4,7.3-6c0-2.6-1.3-4-2.5-4.8l-1.4-0.8l-3.8-1.7
	c-1.4-0.6-2.8-1.3-2.8-3.3c0-2,1.1-3.5,3.8-3.5c1.1,0,2.4,0.3,3.2,1.3l0.6,1.3l2.7-0.9c-1-2.8-3.5-3.9-6.5-3.9
	c-3.1,0-6.7,1.7-6.7,5.8c0,1.6,0.7,2.9,1.8,3.9l1.3,0.8l5.1,2.4c0.8,0.4,2.3,1.1,2.3,3.4c0,0.9-0.4,1.8-1.1,2.5
	c-0.7,0.7-1.7,1.2-3.1,1.2c-2.1,0-3.3-1-4-2.2l-0.5-1.1l-2.6,1C130.8,329.3,132.5,332.2,137.2,332.2 M88.9,331.8h2.8v-9.6h4.6
	l4.4,9.6h3.3l-5.1-10.1c1.1-0.4,3.9-1.4,3.9-5.4c0-3.4-2.2-5.2-5.2-5.6l-1.3-0.1h-7.3V331.8z M91.6,312.7h4c1.2,0,4.3,0.2,4.3,3.7
	c0,1.4-0.7,3.1-2.9,3.4l-1.1,0.1h-4.3V312.7z M47.3,331.8h13.1v-2.2H50.1v-7.7h9.5v-2.2h-9.5v-7h10v-2.2H47.3V331.8z M5.1,310.5h-3
	l7.1,21.3h3.6l7.3-21.3h-2.8l-5.3,16.1l-0.7,2.6H11l-0.7-2.6L5.1,310.5z M-25.3,310.5H-28v21.3h2.7V310.5z M-73.9,331.8h2.7v-15.3
	l-0.1-2.7h0.1l1.4,2.9l8.5,15h3.7v-21.3h-2.8v15.1l0.1,2.7h-0.1l-1.4-2.9l-8.5-14.9h-3.6V331.8z M-103.4,310.5h-2.7v13.6
	c0,2.9-1.3,5.9-5,5.9c-2.8,0-4.2-1.7-4.8-3.8l-0.3-2.1v-13.6h-2.8v12.9c0,3.5,1.1,5.7,2.6,7.1c1.5,1.3,3.5,1.8,5.2,1.8
	c3.1,0,6.7-1.3,7.6-6.4l0.2-2.4V310.5z M-84.2,283.6l15.6,0.4v-3.7h-2.5c-4.2,0-6.8-1.1-7.4-6.3l-0.1-2.5v-22l21.8-40.7
	c3.3-6.2,4.6-8.2,8.2-8.7l1.7-0.1h3.1v-3.7c-3.9,0.1-8.1,0.4-12.2,0.4l-12.2-0.4v3.7h2.3c3.3,0,4.8,0.7,4.8,2.8
	c0,0.9-0.4,2.1-0.8,3.4l-2.4,5.3l-17,32.5l-18.2-32.8c-1.2-2.2-2.7-5.5-2.7-7.3c0-2.3,1.1-3.4,2.8-3.8l1.8-0.2h2.2v-3.7
	c-5.2,0.1-10.5,0.4-15.6,0.4l-15.5-0.4v3.7h1.1c4.5,0,6.5,0.6,9.3,4.6l3.1,5.2l23.6,42.3v19.4c0,5.6-1,8.1-5.4,8.6l-2.1,0.1h-3v3.7
	C-95.3,283.9-89.6,283.6-84.2,283.6 M-118.7,340.3v1.3l378.3,0v-1.3L-118.7,340.3z M249.7,373.5h2.8v-8.7l7.5-12.6h-3.1l-4.8,8.4
	l-0.9,1.8h-0.1l-0.9-1.8l-4.8-8.4h-3.3l7.5,12.6V373.5z M208,373.5h2.8v-18.9h6.2v-2.4h-15.1v2.4h6.2V373.5z M174.7,352.2h-2.7v21.3
	h2.7V352.2z M136.2,373.9c6.1,0,7.3-4,7.3-6c0-2.6-1.3-4-2.5-4.8l-1.4-0.8l-3.8-1.7c-1.4-0.6-2.8-1.3-2.8-3.3c0-1.9,1.1-3.5,3.7-3.5
	c1.1,0,2.4,0.3,3.2,1.3l0.6,1.3l2.7-0.9c-1-2.8-3.5-3.9-6.5-3.9c-3.1,0-6.7,1.7-6.7,5.8c0,1.7,0.7,2.9,1.8,3.9l1.3,0.8l5.2,2.4
	c0.8,0.4,2.3,1.1,2.3,3.4c0,0.9-0.4,1.8-1.1,2.5c-0.7,0.7-1.7,1.2-3.1,1.2c-2.1,0-3.3-1-4-2.2l-0.5-1.2l-2.7,1
	C129.8,371,131.5,373.9,136.2,373.9 M88,373.5h2.7v-9.6h4.6l4.4,9.6h3.3L98,363.3c1.1-0.3,3.9-1.3,3.9-5.4c0-3.9-2.9-5.7-6.5-5.7H88
	V373.5z M90.8,354.4h4c1.2,0,4.3,0.1,4.3,3.7c0,1.4-0.7,3.1-2.9,3.5l-1.1,0.1h-4.3V354.4z M46.7,373.5h13.1v-2.2H49.4v-7.7h9.5v-2.2
	h-9.5v-6.9h10v-2.2H46.7V373.5z M4.6,352.2h-3l7.1,21.3h3.6l7.3-21.3h-2.8l-5.3,16.1l-0.7,2.6h-0.1l-0.7-2.6L4.6,352.2z
	 M-25.6,352.2h-2.8v21.3h2.8V352.2z M-74,373.5h2.8v-15.3l-0.2-2.7h0.2l1.4,2.9l8.5,15h3.7v-21.3h-2.7v15.1l0.1,2.7h-0.1l-1.4-2.9
	l-8.6-14.9H-74V373.5z M189.7,283.6l16,0.4v-3.7h-3.6c-4.3,0-6.5-1-6.9-9.1l-0.1-3.9v-18.8l6.4-6.8l25.2,28.9c7,8,7.4,9.9,8,13.4
	c3.9-0.1,8-0.4,11.9-0.4l11.9,0.4v-3.7h-1.9c-4.4,0-7.7-0.9-13.1-6.6l-2.4-2.7l-31.7-37.2l23.8-25c7.3-7.6,9.3-8.7,15.4-8.7h2.2
	v-3.7c-4.9,0.1-9.7,0.4-14.6,0.4l-14.5-0.4v3.7h2.2c2.4,0,4.1,1,4.1,3.2c0,1.5-1.7,3.9-3.3,5.8L222,212l-26.9,30v-28.9
	c0-10.2,1.6-12.6,5.3-13l1.7-0.1h3.6v-3.7c-5.4,0.1-10.6,0.4-16,0.4l-15.7-0.4v3.7h2.2c5,0,7.5,1.6,8,7.4l0.1,2.7v60
	c0,7-1.9,9.5-6.2,10l-2,0.1h-2.2v3.7C178.2,283.8,184.1,283.6,189.7,283.6 M91.7,283.6l16,0.4v-3.7h-3.6c-4.3,0-6.4-1-6.9-9.1
	l-0.1-3.9V244c9.5,0.3,11,0.5,13.9,5.1l14.4,23.5c6.5,10.7,11.6,12.1,22.4,12.1l6.9-0.1v-2.6c-10-0.6-12-1.4-18.7-12.5l-16.5-27.3
	c6.2-2,17.5-6.9,17.5-23c0-5.7-4-22.8-25.7-22.8c-5.4,0-11.3,0.4-19.6,0.4L76,196.4v3.7h2.2c4.9,0,7.5,1.6,8,7.4l0.1,2.7v60
	c0,7-1.9,9.5-6.2,10l-2,0.1H76v3.7C80.3,283.8,86.2,283.6,91.7,283.6 M104.9,201c17.1,0,20.8,15,20.8,20.4c0,6.4-2.3,10.9-5.9,13.7
	c-3.7,2.9-8.7,4.1-14.3,4.1c-2.4,0-4.7-0.1-6.6-0.4l-1.7-0.5v-36.9C99.6,201.3,101.9,201,104.9,201 M56.7,240.2
	c0-24-18.8-42.9-41.3-45.2l-4.6-0.2c-24.2,0-46.2,19-46.2,46.4c0,24.4,19.2,44.4,45.8,44.4c14.8,0,26.3-5.9,34.2-14.6
	C52.5,262.3,56.7,251,56.7,240.2 M11.1,280.9c-10.6,0-19.1-5.5-25-13.4c-5.9-8-9.2-18.4-9.2-28.4c0-26.8,14.3-37.7,30.2-39l3.2-0.1
	c21.5,0,34,21.8,34,41.6C44.3,264.1,33.9,280.9,11.1,280.9"/>
<path id="XMLID_1_" class="st0" d="M422.2,350.7c26.4-2,43.6-17.7,50.1-40.5l1.2-5v68.3H286.1V186.2h71v102.1
	c0,40.3,24.2,60.1,53.4,62.4l5.9,0.2 M416.4,312.5l3.1-0.2c14.6-1.7,19.2-15.7,19.2-29.5v-96.7h-43.6v96.7l0.3,5.7
	C396.6,301.5,402.5,312.5,416.4,312.5"/>
</svg>
